# Blender v2.93.1 OBJ File: 'corner.blend'
# www.blender.org
mtllib corner.mtl
o Plane
v -0.500000 0.000000 0.500000
v 0.500000 0.000000 0.500000
v -0.500000 0.500000 -0.500000
v 0.500000 0.000000 -0.500000
v 0.200000 0.000000 0.200000
v -0.100000 0.400000 -0.500000
v -0.500000 0.400000 -0.100000
v -0.210000 0.400000 -0.210000
v -0.500000 0.100000 0.100000
v 0.100000 0.100000 -0.500000
v -0.065000 0.100000 -0.065000
vt 0.435000 0.565000
vt 0.290000 0.710000
vt 0.000000 0.600000
vt 0.000000 0.400000
vt 0.000000 1.000000
vt 0.400000 1.000000
vt 0.600000 1.000000
vt 0.700000 0.300000
vt 1.000000 1.000000
vt 1.000000 0.000000
vt 0.000000 0.000000
vn 0.3010 0.5290 0.7935
vn 0.2415 0.9661 0.0916
vn 0.0916 0.9661 0.2415
vn 0.7935 0.5290 0.3010
vn 0.2490 0.9631 0.1020
vn 0.0000 1.0000 0.0000
vn 0.1020 0.9631 0.2490
usemtl None
s off
f 11/1/1 8/2/1 7/3/1 9/4/1
f 3/5/2 8/2/2 6/6/2
f 3/5/3 7/3/3 8/2/3
f 6/6/4 8/2/4 11/1/4 10/7/4
f 10/7/5 11/1/5 5/8/5 4/9/5
f 5/8/6 2/10/6 4/9/6
f 2/10/6 5/8/6 1/11/6
f 9/4/7 1/11/7 5/8/7 11/1/7
