{
  "asset": {
    "generator": "Khronos glTF Blender I/O v3.2.43",
    "version": "2.0"
  },
  "scene": 0,
  "scenes": [
    {
      "name": "Scene",
      "nodes": [
        0
      ]
    }
  ],
  "nodes": [
    {
      "mesh": 0,
      "name": "sphere_gltf"
    }
  ],
  "materials": [
    {
      "doubleSided": true,
      "name": "patterned_brick_wall",
      "normalTexture": {
        "index": 0
      },
      "pbrMetallicRoughness": {
        "baseColorTexture": {
          "index": 1
        },
        "metallicFactor": 0,
        "metallicRoughnessTexture": {
          "index": 2
        }
      }
    }
  ],
  "meshes": [
    {
      "name": "Sphere.001",
      "primitives": [
        {
          "attributes": {
            "POSITION": 0,
            "NORMAL": 1,
            "TEXCOORD_0": 2
          },
          "indices": 3,
          "material": 0
        }
      ]
    }
  ],
  "textures": [
    {
      "sampler": 0,
      "source": 0
    },
    {
      "sampler": 0,
      "source": 1
    },
    {
      "sampler": 0,
      "source": 2
    }
  ],
  "images": [
    {
      "mimeType": "image/jpeg",
      "name": "patterned_brick_wall_nor_gl_8k",
      "uri": "textures/patterned_brick_wall_nor_gl_4k.jpg"
    },
    {
      "mimeType": "image/jpeg",
      "name": "patterned_brick_wall_diff_8k",
      "uri": "textures/patterned_brick_wall_diff_4k.jpg"
    },
    {
      "mimeType": "image/jpeg",
      "name": "patterned_brick_wall_rough_8k",
      "uri": "textures/patterned_brick_wall_rough_4k.jpg"
    }
  ],
  "accessors": [
    {
      "bufferView": 0,
      "componentType": 5126,
      "count": 53906,
      "max": [
        1.0133916139602661,
        1.0164930820465088,
        1.0098737478256226
      ],
      "min": [
        -1.0133917331695557,
        -1.014693021774292,
        -1.0098830461502075
      ],
      "type": "VEC3"
    },
    {
      "bufferView": 1,
      "componentType": 5126,
      "count": 53906,
      "type": "VEC3"
    },
    {
      "bufferView": 2,
      "componentType": 5126,
      "count": 53906,
      "type": "VEC2"
    },
    {
      "bufferView": 3,
      "componentType": 5123,
      "count": 322170,
      "type": "SCALAR"
    }
  ],
  "bufferViews": [
    {
      "buffer": 0,
      "byteLength": 646872,
      "byteOffset": 0
    },
    {
      "buffer": 0,
      "byteLength": 646872,
      "byteOffset": 646872
    },
    {
      "buffer": 0,
      "byteLength": 431248,
      "byteOffset": 1293744
    },
    {
      "buffer": 0,
      "byteLength": 644340,
      "byteOffset": 1724992
    }
  ],
  "samplers": [
    {
      "magFilter": 9729,
      "minFilter": 9987
    }
  ],
  "buffers": [
    {
      "byteLength": 2369332,
      "uri": "patterned_brick_wall.bin"
    }
  ]
}